<svg data-v-02805a7c="" version="1.1" id="Layer_1" xmlns="http://www.w3.org/2000/svg" xmlns:xlink="http://www.w3.org/1999/xlink" x="0px" y="0px" viewBox="0 0 100 100" style="enable-background:new 0 0 100 100;" xml:space="preserve" class="icon"><title>ic/close</title><desc>Created with Sketch.</desc><g><g><g><path d="M59.3,50l37.1-37.1c2.6-2.6,2.6-6.7,0-9.3c-2.6-2.6-6.7-2.6-9.3,0L50,40.7L12.9,3.6c-2.6-2.6-6.7-2.6-9.3,0
				s-2.6,6.7,0,9.3L40.7,50L3.6,87.1c-2.6,2.6-2.6,6.7,0,9.3c2.6,2.6,6.7,2.6,9.3,0L50,59.3l37.1,37.1c2.6,2.6,6.7,2.6,9.3,0
				c2.6-2.6,2.6-6.7,0-9.3L59.3,50z"></path><path d="M91.7,100c-2.1,0-4.2-0.8-5.9-2.4L50,61.7L14.1,97.6c-3.2,3.2-8.5,3.2-11.7,0c-3.2-3.2-3.2-8.5,0-11.7L38.3,50L2.4,14.1
				c-3.2-3.2-3.2-8.5,0-11.7c3.2-3.2,8.5-3.2,11.7,0L50,38.3L85.9,2.4c3.2-3.2,8.5-3.2,11.7,0c3.2,3.2,3.2,8.5,0,11.7L61.7,50
				l35.9,35.9c3.2,3.2,3.2,8.5,0,11.7C96,99.2,93.8,100,91.7,100z M50,56.8l38.3,38.3c1.9,1.9,5,1.9,6.8,0c1.9-1.9,1.9-5,0-6.8
				L56.8,50l38.3-38.3c1.9-1.9,1.9-5,0-6.8c-1.9-1.9-5-1.9-6.8,0L50,43.2L11.7,4.9C9.8,3,6.7,3,4.9,4.9c-1.9,1.9-1.9,5,0,6.8
				L43.2,50L4.9,88.3c-1.9,1.9-1.9,5,0,6.8c1.9,1.9,4.9,1.9,6.8,0L50,56.8z"></path></g></g></g></svg>