<?xml version="1.0" encoding="utf-8"?>
<!-- Generator: Adobe Illustrator 23.0.4, SVG Export Plug-In . SVG Version: 6.00 Build 0)  -->
<svg version="1.1" id="Layer_1" xmlns="http://www.w3.org/2000/svg" xmlns:xlink="http://www.w3.org/1999/xlink" x="0px" y="0px"
	 viewBox="0 0 100 100" style="enable-background:new 0 0 100 100;" xml:space="preserve">
<path d="M72.8-0.1l-11.9,0c-13.3,0-22,9.7-22,24.6v11.4H27.1c-1,0-1.9,0.9-1.9,2v16.4c0,1.1,0.8,2,1.9,2H39v41.5c0,1.1,0.8,2,1.9,2
	h15.6c1,0,1.9-0.9,1.9-2V56.4h13.9c1,0,1.9-0.9,1.9-2l0-16.4c0-0.5-0.2-1-0.5-1.4c-0.3-0.4-0.8-0.6-1.3-0.6h-14v-9.6
	c0-4.6,1-7,6.5-7h8c1,0,1.9-0.9,1.9-2V2C74.7,0.9,73.8,0,72.8-0.1L72.8-0.1z"/>
</svg>
