<?xml version="1.0" encoding="utf-8"?>
<!-- Generator: Adobe Illustrator 23.0.4, SVG Export Plug-In . SVG Version: 6.00 Build 0)  -->
<svg version="1.1" id="Layer_1" xmlns="http://www.w3.org/2000/svg" xmlns:xlink="http://www.w3.org/1999/xlink" x="0px" y="0px"
	 viewBox="0 0 100 100" style="enable-background:new 0 0 100 100;" xml:space="preserve">
<path d="M74.7,0c13.8,0,25,11.2,25,25v50c0,13.8-11.2,25-25,25h-50c-13.8,0-25-11.2-25-25V25c0-13.8,11.2-25,25-25H74.7z M91.3,75
	V25c0-9.2-7.5-16.7-16.7-16.7h-50C15.5,8.3,8,15.8,8,25v50c0,9.2,7.5,16.7,16.7,16.7h50C83.9,91.7,91.3,84.2,91.3,75L91.3,75z
	 M76.8,29.2c-3.5,0-6.2-2.8-6.2-6.2s2.8-6.2,6.2-6.2l0,0c3.5,0,6.2,2.8,6.2,6.2S80.2,29.2,76.8,29.2z M49.7,25c13.8,0,25,11.2,25,25
	s-11.2,25-25,25c-13.8,0-25-11.2-25-25C24.7,36.2,35.9,25,49.7,25z M49.7,66.7c9.2,0,16.7-7.5,16.7-16.7s-7.5-16.7-16.7-16.7l0,0
	C40.5,33.3,33,40.8,33,50S40.5,66.7,49.7,66.7L49.7,66.7z"/>
</svg>
