<?xml version="1.0" encoding="utf-8"?>
<!-- Generator: Adobe Illustrator 23.0.4, SVG Export Plug-In . SVG Version: 6.00 Build 0)  -->
<svg version="1.1" id="Layer_1" xmlns="http://www.w3.org/2000/svg" xmlns:xlink="http://www.w3.org/1999/xlink" x="0px" y="0px"
	 viewBox="0 0 100 100" style="enable-background:new 0 0 100 100;" xml:space="preserve">
<path d="M99.6,18.3c-3.7,1.7-7.7,2.8-11.8,3.3c4.3-2.7,7.5-6.8,9-11.6c-4,2.4-8.4,4.2-13,5.1c-3.8-4.2-9.3-6.6-15-6.7
	c-11.3,0-20.5,9.4-20.5,21c0,1.6,0.2,3.3,0.5,4.8c-17.1-0.9-32.2-9.2-42.3-22c-1.8,3.2-2.8,6.9-2.8,10.6c0,7.3,3.6,13.7,9.1,17.5
	c-3.3-0.1-6.5-1-9.3-2.6v0.3c0,10.2,7.1,18.7,16.5,20.6c-1.7,0.5-3.5,0.7-5.4,0.7c-1.3,0-2.6-0.1-3.9-0.4C13.4,67.2,21,73.3,30,73.5
	c-8.5,6.9-19.5,10-30.4,8.7c9.3,6.2,20.3,9.5,31.4,9.5c37.7,0,58.4-32,58.4-59.8l-0.1-2.7C93.4,26.1,96.9,22.5,99.6,18.3L99.6,18.3z
	"/>
</svg>
